<?xml version="1.0" encoding="UTF-8"?><svg id="Camada_2" xmlns="http://www.w3.org/2000/svg" xmlns:xlink="http://www.w3.org/1999/xlink" viewBox="0 0 1105.24 865.92"><defs><style>.cls-1{fill:url(#Gradiente_1-3);}.cls-1,.cls-2,.cls-3,.cls-4,.cls-5,.cls-6,.cls-7,.cls-8,.cls-9,.cls-10,.cls-11{stroke-width:0px;}.cls-2{fill:url(#Gradiente_1-9);}.cls-3{fill:url(#Gradiente_1-8);}.cls-4{fill:url(#Gradiente_1-7);}.cls-5{fill:url(#Gradiente_1);}.cls-6{fill:url(#Gradiente_1-10);}.cls-7{fill:url(#Gradiente_1-5);}.cls-8{fill:url(#Gradiente_1-11);}.cls-9{fill:url(#Gradiente_1-2);}.cls-10{fill:url(#Gradiente_1-6);}.cls-11{fill:url(#Gradiente_1-4);}</style><linearGradient id="Gradiente_1" x1="0" y1="679.6" x2="139.44" y2="679.6" gradientUnits="userSpaceOnUse"><stop offset="0" stop-color="#ffda00"/><stop offset="1" stop-color="#f79200"/></linearGradient><linearGradient id="Gradiente_1-2" x1="54.03" y1="694.9" x2="290.68" y2="694.9" xlink:href="#Gradiente_1"/><linearGradient id="Gradiente_1-3" x1="103.69" y1="687.72" x2="282.31" y2="687.72" xlink:href="#Gradiente_1"/><linearGradient id="Gradiente_1-4" x1="541.39" y1="309.17" x2="717.83" y2="309.17" xlink:href="#Gradiente_1"/><linearGradient id="Gradiente_1-5" x1="426.85" y1="160.33" x2="561.81" y2="160.33" xlink:href="#Gradiente_1"/><linearGradient id="Gradiente_1-6" x1="459.56" y1="198.74" x2="688.76" y2="198.74" xlink:href="#Gradiente_1"/><linearGradient id="Gradiente_1-7" x1="894.87" y1="87.06" x2="1075.75" y2="87.06" xlink:href="#Gradiente_1"/><linearGradient id="Gradiente_1-8" x1="40.57" y1="326.12" x2="223.58" y2="326.12" xlink:href="#Gradiente_1"/><linearGradient id="Gradiente_1-9" x1="89.78" y1="184.13" x2="328.86" y2="184.13" xlink:href="#Gradiente_1"/><linearGradient id="Gradiente_1-10" x1="68.99" y1="206.26" x2="306.11" y2="206.26" xlink:href="#Gradiente_1"/><linearGradient id="Gradiente_1-11" x1="855.91" y1="287.28" x2="1068.85" y2="159.52" xlink:href="#Gradiente_1"/></defs><g id="Camada_1-2"><path class="cls-5" d="M139.1,642.35c-.97,19.07-3.76,39.99-6.29,59.57-3.29,25.1-8.42,54.53-16.89,75.26-7,17.97-21.22,39.97-43.25,36.24-38.53-8.29-56.12-69.28-64.1-104.24-8.87-43.24-14.37-88.3,1.6-126.09,12.99-29.9,43.57-43.11,74.76-35.67,43.9,11.48,56.85,52.69,54.17,94.83v.11Z"/><path class="cls-9" d="M225.49,799.2c-45.15,16.04-107.07,10.26-143.63-22.82-15.02-13.77-24.17-33.06-26.82-53.15-7.84-57.79,30.85-117.84,86.81-134.86,36.83-11.89,79.91-7.93,108.78,18.87,31.27,28.74,46.03,79.75,37.81,121.55-6.53,33.17-30.52,58.92-62.84,70.37l-.1.04Z"/><path class="cls-1" d="M282.28,566.9c-1.59,29.89-29.84,59.99-59.97,63.82-24.93,3.43-48.27-13.5-58.36-35.61-16.21-34.85-6.73-79.99,35.54-85.02,34.69-4.44,84,16.78,82.79,56.7v.1ZM104.44,841.57c6.33,21.5,37.85,30.66,56.66,19.7,4.62-2.58,8.73-6.47,10.88-11.33,6.75-15.91-8.16-30.04-22.6-34.21-14.59-4.37-31.86-3.04-41.31,8.11-4.04,4.99-5.35,11.38-3.65,17.65l.02.09Z"/><path class="cls-11" d="M618.07,201.4c21.38-6.3,43.05-5.24,61.56,5.92,24.9,15.72,34.16,42.38,37.46,73.36,4.23,46.96-8.95,119.09-58.14,136.69-20.47,7.28-43.47,2.24-61.92-8.37-26.59-15.27-43.97-41.86-51.85-71.88-14.87-57.8,14.95-117.77,72.79-135.69l.1-.03Z"/><path class="cls-7" d="M497.74,15.85c25.06-5.81,55.1,5.31,62.06,31.2,6.93,24.76-5.52,54.92-14.71,80.7-8.88,23.98-17.67,48.85-24.93,73.47-8.82,28.93-14.83,56.52-21.88,78.17-3.68,10.14-8.92,26.51-21.73,26.94-26.19-2.93-39.36-56.61-43.43-79.5-7.38-43.6-9.62-97.14.89-140.8,7.66-32.99,29.33-63.14,63.64-70.16l.08-.02Z"/><path class="cls-10" d="M685.56,243.73c-5.75,29.86-22.68,58.52-52.65,66.21-43.67,11.97-116.76-22.41-149.08-52.81-14.58-13.86-24.9-30.86-24.24-50.92.9-21.21,12.27-39.3,26.09-55.28,28.35-31.76,81.89-69.96,126.26-65.47,65.4,7.89,85.36,104.14,73.63,158.16l-.02.11Z"/><path class="cls-4" d="M1065.43,53.57c10.75,21.19,14.29,47.69,4.86,69.14-21.2,47.49-101.21,45.19-145.94,14.33-21.75-14.78-38.87-39.16-23.68-64.32,5.21-9.2,15.43-18.87,25.69-26.16,26.31-17.89,61.79-37.07,93.96-30.58,20.22,4.4,35.43,18.83,45.07,37.49l.05.1Z"/><path class="cls-3" d="M223.34,374.05c1.82,16.21-7.09,28-22.24,36.54-37.65,20.45-92.88,14.51-125.4-14.55-29.37-25.21-41.01-67.3-32.32-104.59,10.17-44.72,51.07-84.67,92.22-46.74,19.52,18.09,34.34,44.73,51.47,66.11,14.18,19.2,32.81,40.25,36.26,63.15v.08Z"/><path class="cls-2" d="M221.96,6.63c29.78,7.54,53.67,24.52,68.91,50.6,9.83,16.21,16.64,36.29,21.61,55.3,7.54,29.06,11.85,60.68,14.48,91.18,3.32,44.22,4.56,110.84-16.06,149.41-23.49,41.26-51.35-12.36-65.43-34.56-9.87-16.45-19.95-33.1-31.26-48.69-22.73-31.64-49.59-61-72.22-93.26-24.38-35.15-55.62-86.12-51.91-127.75C96.99-8.25,180.31-4.34,221.85,6.61l.1.03Z"/><path class="cls-6" d="M273.66,288.56c-61.65,67.56-166.56,42.96-196.57-42.15-16.11-44.27-8.71-98.7,27.05-130.85,37.46-34.55,97.74-39.69,142-15.55,68.88,37.29,78.92,131.88,27.6,188.46l-.07.08Z"/><path class="cls-8" d="M877.05,125.57s57.23-48.6,112.86-23.66c55.63,24.94,125.32,101.67,114.13,153.46-11.19,51.79-27.81,64.58-152.5,80.89-69.38,8.31-116.05-66.82-118.29-107.42-2.24-40.6,14.39-79.61,43.8-103.26Z"/></g></svg>