<?xml version="1.0" encoding="UTF-8"?><svg id="Camada_2" xmlns="http://www.w3.org/2000/svg" viewBox="0 0 1186.35 276.6"><defs><style>.cls-1{fill:#fff;stroke-width:0px;}</style></defs><g id="Camada_1-2"><rect class="cls-1" y="4.3" width="56.57" height="56.57" rx="19.71" ry="19.71"/><rect class="cls-1" y="220.03" width="56.57" height="56.57" rx="19.71" ry="19.71"/><rect class="cls-1" x="215.72" y="220.03" width="56.57" height="56.57" rx="19.71" ry="19.71"/><rect class="cls-1" x="215.72" y="4.3" width="56.57" height="56.57" rx="19.71" ry="19.71"/><path class="cls-1" d="M252.58,109.29h-17.15c-10.89,0-19.71-8.82-19.71-19.71v-9c0-10.89-8.83-19.71-19.71-19.71h-11.87c-10.89,0-19.71-8.83-19.71-19.71v-17.15c0-10.89-8.83-19.71-19.71-19.71h-21.95c-10.88,0-19.71,8.82-19.71,19.71v17.15c0,10.88-8.82,19.71-19.71,19.71h-7.09c-10.88,0-19.71,8.82-19.71,19.71v9c0,10.89-8.82,19.71-19.7,19.71h-17.15C8.82,109.29,0,118.12,0,129v21.95c0,10.88,8.82,19.71,19.71,19.71h17.15c10.88,0,19.7,8.82,19.7,19.7v9.96c0,10.89,8.83,19.71,19.71,19.71h7.09c10.89,0,19.71,8.83,19.71,19.71v17.15c0,10.89,8.83,19.71,19.71,19.71h21.95c10.88,0,19.71-8.82,19.71-19.71v-17.15c0-10.88,8.82-19.71,19.71-19.71h11.87c10.88,0,19.71-8.82,19.71-19.71v-9.96c0-10.88,8.82-19.7,19.71-19.7h17.15c10.88,0,19.71-8.83,19.71-19.71v-21.95c0-10.88-8.83-19.71-19.71-19.71ZM136.15,208.52c-37.6,0-68.07-30.47-68.07-68.07s30.47-68.07,68.07-68.07,68.07,30.47,68.07,68.07-30.49,68.07-68.07,68.07Z"/><path class="cls-1" d="M181.2,138.36c0,26.47-22.4,47.7-49.28,45.79-23.12-1.64-41.6-20.73-42.53-43.89-.53-13.2,4.5-25.22,12.96-33.91.6-.62,1.6-.59,2.2.03l13.73,14.27c.56.58.58,1.49.03,2.09-3.95,4.29-6.3,10.1-6.08,16.46.42,11.8,10,21.56,21.79,22.19,13.32.71,24.34-9.88,24.34-23.03,0-6.33-2.55-12.08-6.69-16.24-.57-.57-.58-1.49-.04-2.08l13.18-14.77c.57-.64,1.57-.7,2.2-.11,8.76,8.36,14.21,20.14,14.21,33.2Z"/><rect class="cls-1" x="124.44" y="95.24" width="21.66" height="39.61" rx="1.2" ry="1.2"/><path class="cls-1" d="M370.81,233.02h-36.84V89.03h36.84v143.99Z"/><path class="cls-1" d="M479.07,233.02h-53.73l-6.88-85.95c-.16-.31-.39-.47-.71-.47-.39,0-.62.24-.62.7v85.72h-36.84V89.03h53.73l6.96,85.95c.08.31.31.47.7.47.08,0,.24,0,.39-.08.15-.08.23-28.86.23-86.34h36.76v143.99Z"/><path class="cls-1" d="M587.33,233.02h-53.73l-6.88-85.95c-.15-.31-.39-.47-.7-.47-.39,0-.62.24-.62.7v85.72h-36.84V89.03h53.73l6.96,85.95c.08.31.31.47.71.47.08,0,.24,0,.39-.08s.23-28.86.23-86.34h36.76v143.99Z"/><path class="cls-1" d="M620.9,233.02c-6.65,0-12.36-2.35-17.05-7.04-4.69-4.69-7.04-10.4-7.04-17.05v-95.81c0-6.65,2.35-12.36,7.04-17.05,4.69-4.69,10.4-7.04,17.05-7.04h31.91c6.65,0,12.36,2.35,17.05,7.04,4.69,4.69,7.04,10.4,7.04,17.05v95.81c0,6.65-2.35,12.36-7.04,17.05-4.69,4.69-10.4,7.04-17.05,7.04h-31.91ZM640.14,209.16v-96.28c0-1.88-1.48-3.28-3.28-3.28s-3.28,1.41-3.28,3.28v96.28c0,1.88,1.48,3.28,3.28,3.28s3.28-1.41,3.28-3.28Z"/><path class="cls-1" d="M757.16,233.02h-51.62l-21.9-143.99h36.76l5.01,41.14,4.46,61.63c.08.94.55,1.41,1.49,1.41.86,0,1.41-.47,1.49-1.41l4.46-61.63,5.01-41.14h36.76l-21.9,143.99Z"/><path class="cls-1" d="M865.81,233.02h-36.76l-2.5-20.57h-16.89l-2.5,20.57h-36.84l21.9-143.99h51.7l21.9,143.99ZM824.05,191.88l-4.46-61.63c-.08-.94-.63-1.41-1.49-1.41-.94,0-1.49.47-1.56,1.41l-4.38,61.63h11.89Z"/><path class="cls-1" d="M918.08,233.02h-36.76v-123.42h-24.25l1.88-20.57h81.5l1.88,20.57h-24.25v123.42Z"/><path class="cls-1" d="M986.69,233.02h-36.84V89.03h36.84v143.99Z"/><path class="cls-1" d="M1052.16,91.03c6.09,0,11.35,2.17,15.64,6.45,4.28,4.28,6.45,9.55,6.45,15.64v95.81c0,6.09-2.17,11.35-6.45,15.64-4.28,4.28-9.55,6.45-15.64,6.45h-31.91c-6.09,0-11.35-2.17-15.64-6.45-4.28-4.28-6.45-9.55-6.45-15.64v-95.81c0-6.09,2.17-11.35,6.45-15.64,4.28-4.28,9.54-6.45,15.64-6.45h31.91M1036.21,214.45c2.96,0,5.28-2.32,5.28-5.28v-96.28c0-2.96-2.32-5.28-5.28-5.28s-5.28,2.32-5.28,5.28v96.28c0,2.96,2.32,5.28,5.28,5.28M1052.16,89.03h-31.91c-6.65,0-12.36,2.35-17.05,7.04-4.69,4.69-7.04,10.4-7.04,17.05v95.81c0,6.65,2.35,12.36,7.04,17.05,4.69,4.69,10.4,7.04,17.05,7.04h31.91c6.65,0,12.36-2.35,17.05-7.04,4.69-4.69,7.04-10.4,7.04-17.05v-95.81c0-6.65-2.35-12.36-7.04-17.05-4.69-4.69-10.4-7.04-17.05-7.04h0ZM1036.21,212.45c-1.8,0-3.28-1.41-3.28-3.28v-96.28c0-1.88,1.48-3.28,3.28-3.28s3.28,1.41,3.28,3.28v96.28c0,1.88-1.48,3.28-3.28,3.28h0Z"/><path class="cls-1" d="M1182.51,91.03v139.99h-49.88l-6.73-84.11-.03-.39-.17-.35c-.49-.99-1.43-1.58-2.49-1.58-1.52,0-2.62,1.14-2.62,2.7v83.72h-32.84V91.03h49.89l6.81,84.11v.16s.05.15.05.15c.29,1.21,1.33,2,2.65,2,.18,0,.71,0,1.3-.3q1.14-.58,1.2-7.21c.03-3.6.05-9.05.07-16.22.04-14.03.06-35.11.06-62.71h32.76M1184.51,89.03h-36.76c0,57.48-.08,86.27-.23,86.34-.16.08-.31.08-.39.08-.39,0-.63-.16-.7-.47l-6.96-85.95h-53.73v143.99h36.84v-85.72c0-.47.23-.7.62-.7.31,0,.55.16.71.47l6.88,85.95h53.73V89.03h0Z"/><rect class="cls-1" x="333.97" y="256.48" width="852.39" height="20.12"/><rect class="cls-1" x="465.17" y="49.41" width="438.36" height="20.12"/><path class="cls-1" d="M346.57,68.71h-10.01V5.02h10.01v27.3h11.38V5.02h10.19v63.69h-10.19v-27.3h-11.38v27.3Z"/><path class="cls-1" d="M387.25,5.02v49.13c0,4.55,2,6.19,5.19,6.19s5.18-1.64,5.18-6.19V5.02h9.46v48.5c0,10.19-5.1,16.01-14.92,16.01s-14.92-5.82-14.92-16.01V5.02h10.01Z"/><path class="cls-1" d="M446.13,19.66v2.28c0,6.55-2,10.74-6.46,12.83,5.37,2.09,7.46,6.92,7.46,13.65v5.19c0,9.83-5.19,15.1-15.2,15.1h-15.74V5.02h15.1c10.37,0,14.83,4.82,14.83,14.65ZM426.2,14.11v16.83h3.91c3.73,0,6-1.64,6-6.73v-3.55c0-4.55-1.55-6.55-5.09-6.55h-4.82ZM426.2,40.05v19.56h5.73c3.37,0,5.19-1.55,5.19-6.28v-5.55c0-5.91-1.91-7.73-6.46-7.73h-4.46Z"/><path class="cls-1" d="M936.23,50.87v5.37c0,4.13,1.82,5.62,4.71,5.62s4.71-1.49,4.71-5.62v-12.71c0-4.13-1.82-5.7-4.71-5.7s-4.71,1.57-4.71,5.7v1.73h-8.59l1.65-33.53h23.95v8.26h-15.77l-.74,13.79c1.65-2.73,4.3-4.21,7.93-4.21,6.69,0,10.07,4.71,10.07,13.21v12.88c0,9.25-4.62,14.53-13.54,14.53s-13.54-5.28-13.54-14.53v-4.79h8.59Z"/><path class="cls-1" d="M962,33.77c0-7.84,4.87-10.07,11.73-10.32v-3.8c0-2.15-.74-3.06-2.31-3.06-1.82,0-2.81.91-2.81,3.55v1.9h-5.45v-1.57c0-5.78,2.81-9.17,8.5-9.17s7.84,3.39,7.84,9.17v21.55h-4.87l-.33-3.96c-.91,2.89-2.89,4.38-5.86,4.38-4.3,0-6.44-2.89-6.44-8.34v-.33ZM979.5,45.83v5.7h-17.5v-5.7h17.5ZM967.78,33.61c0,2.64,1.16,3.55,2.97,3.55s2.81-.74,2.97-2.97v-6.44c-5.12.25-5.95,2.89-5.95,5.12v.74Z"/><path class="cls-1" d="M1011.8,36.08h12.47v8.26h-12.47v16.93h15.69v8.26h-24.77V11.73h24.77v8.26h-15.69v16.1Z"/><path class="cls-1" d="M1035.17,11.73h14.37c9.08,0,13.54,5.04,13.54,14.28v29.23c0,9.25-4.46,14.28-13.54,14.28h-14.37V11.73ZM1044.25,19.98v41.29h5.12c2.89,0,4.63-1.49,4.63-5.62v-30.06c0-4.13-1.73-5.62-4.63-5.62h-5.12Z"/><path class="cls-1" d="M1070.93,11.73h9.08v57.8h-9.08V11.73Z"/><path class="cls-1" d="M1115.03,47.97v7.68c0,8.59-4.05,13.79-11.73,14.45v2.64c4.05,0,6.11.99,6.11,3.88,0,4.46-3.47,5.04-8.34,5.04-4.54,0-7.93-.99-7.93-4.79v-.83h6.11v.66c0,1.24.91,1.65,1.82,1.65,1.4,0,2.06-.58,2.06-1.98,0-1.57-.99-2.15-2.97-2.15h-.83v-4.21c-7.51-.74-11.39-5.86-11.39-14.37v-30.06c0-9.25,4.63-14.53,13.54-14.53s13.54,5.28,13.54,14.53v5.62h-8.59v-6.19c0-4.13-1.82-5.7-4.71-5.7s-4.71,1.57-4.71,5.7v31.21c0,4.13,1.82,5.62,4.71,5.62s4.71-1.49,4.71-5.62v-8.26h8.59Z"/><path class="cls-1" d="M1152.03,69.53h-9.17l-1.57-10.49h-11.15l-1.57,10.49h-8.34l9.25-57.8h13.29l9.25,57.8ZM1142.94,0l4.38,3.05c-1.57,4.21-4.13,5.62-7.02,5.62-3.47,0-4.96-2.06-7.43-2.06-1.49,0-2.56.33-3.55,2.4l-4.38-3.05c1.57-4.21,4.13-5.62,7.02-5.62,3.47,0,4.95,2.06,7.43,2.06,1.49,0,2.56-.33,3.55-2.4ZM1131.3,51.19h8.75l-4.38-29.23-4.38,29.23Z"/><path class="cls-1" d="M1157.48,25.6c0-9.25,4.87-14.53,13.79-14.53s13.79,5.28,13.79,14.53v30.06c0,9.25-4.87,14.53-13.79,14.53s-13.79-5.28-13.79-14.53v-30.06ZM1166.57,56.23c0,4.13,1.82,5.7,4.71,5.7s4.71-1.57,4.71-5.7v-31.21c0-4.13-1.82-5.7-4.71-5.7s-4.71,1.57-4.71,5.7v31.21Z"/></g></svg>