<?xml version="1.0" encoding="UTF-8"?><svg id="Camada_2" xmlns="http://www.w3.org/2000/svg" xmlns:xlink="http://www.w3.org/1999/xlink" viewBox="0 0 220.25 220.24"><defs><style>.cls-1{fill:url(#Gradiente_1-3);}.cls-1,.cls-2,.cls-3,.cls-4,.cls-5,.cls-6,.cls-7{stroke-width:0px;}.cls-2{fill:url(#Gradiente_1-7);}.cls-3{fill:url(#Gradiente_1);}.cls-4{fill:url(#Gradiente_1-5);}.cls-5{fill:url(#Gradiente_1-2);}.cls-6{fill:url(#Gradiente_1-6);}.cls-7{fill:url(#Gradiente_1-4);}</style><linearGradient id="Gradiente_1" x1="22.01" y1="-17.93" x2="27.52" y2="240.77" gradientUnits="userSpaceOnUse"><stop offset="0" stop-color="#ffda00"/><stop offset="1" stop-color="#f79200"/></linearGradient><linearGradient id="Gradiente_1-2" x1="18.29" y1="-17.85" x2="23.8" y2="240.85" xlink:href="#Gradiente_1"/><linearGradient id="Gradiente_1-3" x1="192.7" y1="-21.57" x2="198.21" y2="237.13" xlink:href="#Gradiente_1"/><linearGradient id="Gradiente_1-4" x1="196.42" y1="-21.65" x2="201.93" y2="237.05" xlink:href="#Gradiente_1"/><linearGradient id="Gradiente_1-5" x1="107.36" y1="-19.75" x2="112.88" y2="238.95" xlink:href="#Gradiente_1"/><linearGradient id="Gradiente_1-6" x1="106.68" y1="-19.73" x2="112.2" y2="238.96" xlink:href="#Gradiente_1"/><linearGradient id="Gradiente_1-7" x1="107.09" y1="-19.71" x2="112.6" y2="238.91" xlink:href="#Gradiente_1"/></defs><g id="Camada_1-2"><rect class="cls-3" y="0" width="45.75" height="45.75" rx="15.94" ry="15.94"/><rect class="cls-5" y="174.49" width="45.75" height="45.75" rx="15.94" ry="15.94"/><rect class="cls-1" x="174.49" y="174.49" width="45.75" height="45.75" rx="15.94" ry="15.94"/><rect class="cls-7" x="174.49" width="45.75" height="45.75" rx="15.94" ry="15.94"/><path class="cls-4" d="M204.3,84.92h-13.87c-8.81,0-15.94-7.13-15.94-15.94v-7.28c0-8.81-7.14-15.94-15.94-15.94h-9.6c-8.81,0-15.94-7.14-15.94-15.94v-13.87c0-8.81-7.14-15.94-15.94-15.94h-17.75c-8.8,0-15.94,7.13-15.94,15.94v13.87c0,8.8-7.13,15.94-15.94,15.94h-5.73c-8.8,0-15.94,7.13-15.94,15.94v7.28c0,8.81-7.13,15.94-15.93,15.94h-13.87C7.14,84.92,0,92.06,0,100.86v17.75c0,8.8,7.13,15.94,15.94,15.94h13.87c8.8,0,15.93,7.13,15.93,15.93v8.06c0,8.81,7.14,15.94,15.94,15.94h5.73c8.81,0,15.94,7.14,15.94,15.94v13.87c0,8.81,7.14,15.94,15.94,15.94h17.75c8.8,0,15.94-7.13,15.94-15.94v-13.87c0-8.8,7.13-15.94,15.94-15.94h9.6c8.8,0,15.94-7.13,15.94-15.94v-8.06c0-8.8,7.13-15.93,15.94-15.93h13.87c8.8,0,15.94-7.14,15.94-15.94v-17.75c0-8.8-7.14-15.94-15.94-15.94ZM110.12,165.18c-30.41,0-55.06-24.65-55.06-55.06s24.65-55.06,55.06-55.06,55.06,24.65,55.06,55.06-24.66,55.06-55.06,55.06Z"/><path class="cls-6" d="M146.56,108.43c0,21.41-18.12,38.58-39.86,37.04-18.7-1.33-33.65-16.77-34.4-35.5-.43-10.68,3.64-20.4,10.48-27.43.48-.5,1.29-.48,1.78.02l11.1,11.54c.45.47.47,1.21.03,1.69-3.2,3.47-5.1,8.17-4.91,13.31.34,9.54,8.09,17.44,17.62,17.95,10.78.57,19.69-7.99,19.69-18.63,0-5.12-2.06-9.77-5.41-13.14-.46-.46-.47-1.2-.04-1.69l10.66-11.95c.46-.52,1.27-.57,1.78-.09,7.08,6.76,11.49,16.29,11.49,26.86Z"/><rect class="cls-2" x="100.66" y="73.55" width="17.52" height="32.04" rx="1.2" ry="1.2"/></g></svg>