<?xml version="1.0" encoding="UTF-8"?><svg id="Camada_2" xmlns="http://www.w3.org/2000/svg" xmlns:xlink="http://www.w3.org/1999/xlink" viewBox="0 0 478.32 429.93"><defs><style>.cls-1{fill:url(#Gradiente_1-3);}.cls-1,.cls-2,.cls-3,.cls-4,.cls-5,.cls-6,.cls-7,.cls-8,.cls-9,.cls-10,.cls-11,.cls-12,.cls-13,.cls-14,.cls-15,.cls-16,.cls-17,.cls-18,.cls-19,.cls-20,.cls-21,.cls-22,.cls-23,.cls-24,.cls-25,.cls-26,.cls-27,.cls-28,.cls-29,.cls-30,.cls-31,.cls-32{stroke-width:0px;}.cls-2{fill:url(#Gradiente_1-27);}.cls-3{fill:url(#Gradiente_1-31);}.cls-4{fill:url(#Gradiente_1-15);}.cls-5{fill:url(#Gradiente_1-17);}.cls-6{fill:url(#Gradiente_1-24);}.cls-7{fill:url(#Gradiente_1-9);}.cls-8{fill:url(#Gradiente_1-23);}.cls-9{fill:url(#Gradiente_1-8);}.cls-10{fill:url(#Gradiente_1-21);}.cls-11{fill:url(#Gradiente_1-18);}.cls-12{fill:url(#Gradiente_1-32);}.cls-13{fill:url(#Gradiente_1-7);}.cls-14{fill:url(#Gradiente_1-25);}.cls-15{fill:url(#Gradiente_1-28);}.cls-16{fill:url(#Gradiente_1);}.cls-17{fill:url(#Gradiente_1-20);}.cls-18{fill:url(#Gradiente_1-12);}.cls-19{fill:url(#Gradiente_1-10);}.cls-20{fill:url(#Gradiente_1-5);}.cls-21{fill:url(#Gradiente_1-19);}.cls-22{fill:url(#Gradiente_1-11);}.cls-23{fill:url(#Gradiente_1-30);}.cls-24{fill:url(#Gradiente_1-26);}.cls-25{fill:url(#Gradiente_1-13);}.cls-26{fill:url(#Gradiente_1-14);}.cls-27{fill:url(#Gradiente_1-2);}.cls-28{fill:url(#Gradiente_1-29);}.cls-29{fill:url(#Gradiente_1-22);}.cls-30{fill:url(#Gradiente_1-6);}.cls-31{fill:url(#Gradiente_1-16);}.cls-32{fill:url(#Gradiente_1-4);}</style><linearGradient id="Gradiente_1" x1="152.35" y1="-12.55" x2="158.03" y2="230.73" gradientUnits="userSpaceOnUse"><stop offset="0" stop-color="#ffda00"/><stop offset="1" stop-color="#f79200"/></linearGradient><linearGradient id="Gradiente_1-2" x1="148.21" y1="-12.46" x2="153.9" y2="230.83" xlink:href="#Gradiente_1"/><linearGradient id="Gradiente_1-3" x1="325.1" y1="-16.59" x2="330.78" y2="226.69" xlink:href="#Gradiente_1"/><linearGradient id="Gradiente_1-4" x1="329.23" y1="-16.69" x2="334.92" y2="226.6" xlink:href="#Gradiente_1"/><linearGradient id="Gradiente_1-5" x1="238.73" y1="-14.57" x2="244.42" y2="228.71" xlink:href="#Gradiente_1"/><linearGradient id="Gradiente_1-6" x1="238.05" y1="-14.56" x2="243.73" y2="228.73" xlink:href="#Gradiente_1"/><linearGradient id="Gradiente_1-7" x1="238.49" y1="-14.57" x2="244.18" y2="228.72" xlink:href="#Gradiente_1"/><linearGradient id="Gradiente_1-8" x1="-5.24" y1="-12.5" x2="17.5" y2="496.81" xlink:href="#Gradiente_1"/><linearGradient id="Gradiente_1-9" x1="38.14" y1="-14.43" x2="60.88" y2="494.87" xlink:href="#Gradiente_1"/><linearGradient id="Gradiente_1-10" x1="98.9" y1="-17.14" x2="121.64" y2="492.16" xlink:href="#Gradiente_1"/><linearGradient id="Gradiente_1-11" x1="154.42" y1="-19.62" x2="177.15" y2="489.68" xlink:href="#Gradiente_1"/><linearGradient id="Gradiente_1-12" x1="209.26" y1="-22.07" x2="231.99" y2="487.23" xlink:href="#Gradiente_1"/><linearGradient id="Gradiente_1-13" x1="254.32" y1="-24.08" x2="277.06" y2="485.22" xlink:href="#Gradiente_1"/><linearGradient id="Gradiente_1-14" x1="303.23" y1="-26.27" x2="325.96" y2="483.04" xlink:href="#Gradiente_1"/><linearGradient id="Gradiente_1-15" x1="340.42" y1="-27.93" x2="363.16" y2="481.38" xlink:href="#Gradiente_1"/><linearGradient id="Gradiente_1-16" x1="378.56" y1="-29.63" x2="401.29" y2="479.68" xlink:href="#Gradiente_1"/><linearGradient id="Gradiente_1-17" x1="434.07" y1="-32.11" x2="456.81" y2="477.2" xlink:href="#Gradiente_1"/><linearGradient id="Gradiente_1-18" x1="62.36" y1="-15.51" x2="85.1" y2="493.79" xlink:href="#Gradiente_1"/><linearGradient id="Gradiente_1-19" x1="379.72" y1="-29.68" x2="402.46" y2="479.62" xlink:href="#Gradiente_1"/><linearGradient id="Gradiente_1-20" x1="368.28" y1="-29.17" x2="391.02" y2="480.13" xlink:href="#Gradiente_1"/><linearGradient id="Gradiente_1-21" x1="84.16" y1="-16.49" x2="106.89" y2="492.82" xlink:href="#Gradiente_1"/><linearGradient id="Gradiente_1-22" x1="206.2" y1="-21.93" x2="228.94" y2="487.37" xlink:href="#Gradiente_1"/><linearGradient id="Gradiente_1-23" x1="228.68" y1="-22.94" x2="251.42" y2="486.37" xlink:href="#Gradiente_1"/><linearGradient id="Gradiente_1-24" x1="250.17" y1="-23.9" x2="272.9" y2="485.41" xlink:href="#Gradiente_1"/><linearGradient id="Gradiente_1-25" x1="158.32" y1="-19.8" x2="181.06" y2="489.51" xlink:href="#Gradiente_1"/><linearGradient id="Gradiente_1-26" x1="175.22" y1="-20.55" x2="197.95" y2="488.75" xlink:href="#Gradiente_1"/><linearGradient id="Gradiente_1-27" x1="199.93" y1="-21.66" x2="222.67" y2="487.65" xlink:href="#Gradiente_1"/><linearGradient id="Gradiente_1-28" x1="218.82" y1="-22.5" x2="241.56" y2="486.81" xlink:href="#Gradiente_1"/><linearGradient id="Gradiente_1-29" x1="233.74" y1="-23.16" x2="256.48" y2="486.14" xlink:href="#Gradiente_1"/><linearGradient id="Gradiente_1-30" x1="248.31" y1="-23.81" x2="271.05" y2="485.49" xlink:href="#Gradiente_1"/><linearGradient id="Gradiente_1-31" x1="266.99" y1="-24.65" x2="289.73" y2="484.66" xlink:href="#Gradiente_1"/><linearGradient id="Gradiente_1-32" x1="287.4" y1="-25.56" x2="310.13" y2="483.75" xlink:href="#Gradiente_1"/></defs><g id="Camada_1-2"><rect class="cls-16" x="129.98" y="0" width="46.41" height="46.41" rx="16.17" ry="16.17"/><rect class="cls-27" x="129.98" y="176.98" width="46.41" height="46.41" rx="16.17" ry="16.17"/><rect class="cls-1" x="306.96" y="176.98" width="46.41" height="46.41" rx="16.17" ry="16.17"/><rect class="cls-32" x="306.96" width="46.41" height="46.41" rx="16.17" ry="16.17"/><path class="cls-20" d="M337.2,86.13h-14.07c-8.94,0-16.17-7.23-16.17-16.17v-7.38c0-8.94-7.24-16.17-16.17-16.17h-9.74c-8.94,0-16.17-7.24-16.17-16.17v-14.07c0-8.94-7.24-16.17-16.17-16.17h-18.01c-8.93,0-16.17,7.23-16.17,16.17v14.07c0,8.93-7.23,16.17-16.17,16.17h-5.81c-8.93,0-16.17,7.23-16.17,16.17v7.38c0,8.94-7.23,16.17-16.16,16.17h-14.07c-8.94,0-16.17,7.24-16.17,16.17v18.01c0,8.93,7.23,16.17,16.17,16.17h14.07c8.93,0,16.16,7.23,16.16,16.16v8.17c0,8.94,7.24,16.17,16.17,16.17h5.81c8.94,0,16.17,7.24,16.17,16.17v14.07c0,8.94,7.24,16.17,16.17,16.17h18.01c8.93,0,16.17-7.23,16.17-16.17v-14.07c0-8.93,7.23-16.17,16.17-16.17h9.74c8.93,0,16.17-7.23,16.17-16.17v-8.17c0-8.93,7.23-16.16,16.17-16.16h14.07c8.93,0,16.17-7.24,16.17-16.17v-18.01c0-8.93-7.24-16.17-16.17-16.17ZM241.68,167.54c-30.85,0-55.85-25-55.85-55.85s25-55.85,55.85-55.85,55.85,25,55.85,55.85-25.01,55.85-55.85,55.85Z"/><path class="cls-30" d="M278.63,109.98c0,21.72-18.38,39.13-40.43,37.57-18.96-1.35-34.13-17.01-34.89-36.01-.44-10.83,3.7-20.69,10.63-27.82.49-.51,1.31-.49,1.8.02l11.26,11.71c.46.48.47,1.23.03,1.71-3.24,3.52-5.17,8.28-4.99,13.5.34,9.68,8.2,17.69,17.88,18.21,10.93.58,19.97-8.1,19.97-18.9,0-5.2-2.09-9.91-5.49-13.33-.46-.47-.47-1.22-.04-1.71l10.81-12.12c.47-.53,1.29-.57,1.8-.09,7.19,6.86,11.65,16.53,11.65,27.24Z"/><rect class="cls-13" x="232.07" y="74.61" width="17.77" height="32.5" rx="1.2" ry="1.2"/><path class="cls-9" d="M20.72,377.43H0v-80.98h20.72v80.98Z"/><path class="cls-7" d="M81.6,377.43h-30.22l-3.87-48.34c-.09-.18-.22-.26-.4-.26-.22,0-.35.13-.35.4v48.21h-20.72v-80.98h30.22l3.91,48.34c.04.18.18.26.4.26.04,0,.13,0,.22-.04.09-.04.13-16.23.13-48.56h20.67v80.98Z"/><path class="cls-19" d="M142.49,377.43h-30.22l-3.87-48.34c-.09-.18-.22-.26-.4-.26-.22,0-.35.13-.35.4v48.21h-20.72v-80.98h30.22l3.92,48.34c.04.18.18.26.4.26.04,0,.13,0,.22-.04.09-.04.13-16.23.13-48.56h20.67v80.98Z"/><path class="cls-22" d="M161.36,377.43c-3.74,0-6.95-1.32-9.59-3.96-2.64-2.64-3.96-5.85-3.96-9.59v-53.89c0-3.74,1.32-6.95,3.96-9.59,2.64-2.64,5.85-3.96,9.59-3.96h17.95c3.74,0,6.95,1.32,9.59,3.96,2.64,2.64,3.96,5.85,3.96,9.59v53.89c0,3.74-1.32,6.95-3.96,9.59-2.64,2.64-5.85,3.96-9.59,3.96h-17.95ZM172.18,364.01v-54.15c0-1.06-.84-1.85-1.85-1.85s-1.85.79-1.85,1.85v54.15c0,1.06.84,1.85,1.85,1.85s1.85-.79,1.85-1.85Z"/><path class="cls-18" d="M237.99,377.43h-29.03l-12.32-80.98h20.67l2.82,23.14,2.51,34.66c.04.53.31.79.84.79.48,0,.79-.26.84-.79l2.51-34.66,2.82-23.14h20.67l-12.32,80.98Z"/><path class="cls-25" d="M299.1,377.43h-20.68l-1.41-11.57h-9.5l-1.41,11.57h-20.72l12.32-80.98h29.08l12.32,80.98ZM275.61,354.29l-2.51-34.66c-.04-.53-.35-.79-.83-.79-.53,0-.84.26-.88.79l-2.46,34.66h6.69Z"/><path class="cls-26" d="M328.49,377.43h-20.68v-69.41h-13.64l1.06-11.57h45.84l1.05,11.57h-13.64v69.41Z"/><path class="cls-4" d="M367.07,377.43h-20.72v-80.98h20.72v80.98Z"/><path class="cls-31" d="M403.89,298.45c3.23,0,5.91,1.1,8.17,3.37,2.27,2.27,3.37,4.94,3.37,8.18v53.89c0,3.23-1.1,5.91-3.37,8.17-2.27,2.27-4.94,3.37-8.17,3.37h-17.95c-3.23,0-5.91-1.1-8.17-3.37-2.27-2.27-3.37-4.94-3.37-8.17v-53.89c0-3.23,1.1-5.91,3.37-8.18,2.27-2.27,4.94-3.37,8.17-3.37h17.95M394.92,367.86c2.12,0,3.85-1.73,3.85-3.85v-54.15c0-2.12-1.73-3.85-3.85-3.85s-3.85,1.73-3.85,3.85v54.15c0,2.12,1.73,3.85,3.85,3.85M403.89,296.45h-17.95c-3.74,0-6.95,1.32-9.59,3.96-2.64,2.64-3.96,5.85-3.96,9.59v53.89c0,3.74,1.32,6.95,3.96,9.59,2.64,2.64,5.85,3.96,9.59,3.96h17.95c3.74,0,6.95-1.32,9.59-3.96,2.64-2.64,3.96-5.85,3.96-9.59v-53.89c0-3.74-1.32-6.95-3.96-9.59-2.64-2.64-5.85-3.96-9.59-3.96h0ZM394.92,365.86c-1.01,0-1.85-.79-1.85-1.85v-54.15c0-1.06.84-1.85,1.85-1.85s1.85.79,1.85,1.85v54.15c0,1.06-.84,1.85-1.85,1.85h0Z"/><path class="cls-5" d="M476.32,298.45v76.98h-26.37l-3.72-46.5-.03-.39-.18-.35c-.43-.85-1.25-1.36-2.18-1.36-1.34,0-2.35,1.03-2.35,2.4v46.21h-16.72v-76.98h26.37l3.77,46.51v.16s.05.16.05.16c.26,1.07,1.2,1.79,2.34,1.79.4,0,.78-.09,1.1-.25,1.14-.56,1.14-.72,1.18-4.84.02-2.03.03-5.07.04-9.12.02-7.73.03-19.3.03-34.4h16.67M478.32,296.45h-20.67c0,32.33-.04,48.52-.13,48.56-.09.04-.18.04-.22.04-.22,0-.35-.09-.4-.26l-3.92-48.34h-30.22v80.98h20.72v-48.21c0-.26.13-.4.35-.4.18,0,.31.09.4.26l3.87,48.34h30.22v-80.98h0Z"/><rect class="cls-11" x="1.15" y="390.53" width="159.17" height="11.29"/><rect class="cls-21" x="319.15" y="390.53" width="159.17" height="11.29"/><rect class="cls-17" x="285.85" y="274.33" width="192.48" height="11.29"/><rect class="cls-10" x="1.15" y="274.33" width="192.48" height="11.29"/><path class="cls-29" d="M215.87,285.16h-5.62v-35.75h5.62v15.32h6.38v-15.32h5.72v35.75h-5.72v-15.32h-6.38v15.32Z"/><path class="cls-8" d="M238.7,249.41v27.58c0,2.55,1.12,3.47,2.91,3.47s2.91-.92,2.91-3.47v-27.58h5.31v27.22c0,5.72-2.86,8.99-8.38,8.99s-8.38-3.27-8.38-8.99v-27.22h5.62Z"/><path class="cls-6" d="M271.74,257.63v1.28c0,3.68-1.12,6.03-3.63,7.2,3.01,1.17,4.19,3.88,4.19,7.66v2.91c0,5.52-2.91,8.48-8.53,8.48h-8.84v-35.75h8.48c5.82,0,8.32,2.71,8.32,8.22ZM260.56,254.51v9.45h2.19c2.09,0,3.37-.92,3.37-3.78v-1.99c0-2.55-.87-3.68-2.86-3.68h-2.71ZM260.56,269.07v10.98h3.22c1.89,0,2.91-.87,2.91-3.52v-3.11c0-3.32-1.07-4.34-3.63-4.34h-2.5Z"/><path class="cls-14" d="M174.81,412.64v3.01c0,2.32,1.02,3.15,2.64,3.15s2.64-.83,2.64-3.15v-7.14c0-2.32-1.02-3.2-2.64-3.2s-2.64.88-2.64,3.2v.97h-4.82l.93-18.82h13.44v4.63h-8.85l-.42,7.74c.93-1.53,2.41-2.36,4.45-2.36,3.76,0,5.65,2.64,5.65,7.42v7.23c0,5.19-2.6,8.16-7.6,8.16s-7.6-2.97-7.6-8.16v-2.69h4.82Z"/><path class="cls-24" d="M189.26,403.04c0-4.4,2.73-5.65,6.58-5.79v-2.13c0-1.2-.42-1.71-1.3-1.71-1.02,0-1.58.51-1.58,1.99v1.07h-3.06v-.88c0-3.24,1.57-5.14,4.77-5.14s4.4,1.9,4.4,5.14v12.1h-2.73l-.19-2.22c-.51,1.62-1.62,2.46-3.29,2.46-2.41,0-3.62-1.62-3.62-4.68v-.19ZM199.09,409.81v3.2h-9.83v-3.2h9.83ZM192.51,402.95c0,1.48.65,1.99,1.67,1.99s1.58-.42,1.67-1.67v-3.62c-2.87.14-3.34,1.62-3.34,2.87v.42Z"/><path class="cls-2" d="M217.21,404.34h7v4.63h-7v9.5h8.81v4.63h-13.9v-32.44h13.9v4.63h-8.81v9.04Z"/><path class="cls-15" d="M230.33,390.67h8.07c5.1,0,7.6,2.83,7.6,8.02v16.41c0,5.19-2.5,8.02-7.6,8.02h-8.07v-32.44ZM235.43,395.3v23.18h2.87c1.62,0,2.6-.83,2.6-3.15v-16.87c0-2.32-.97-3.15-2.6-3.15h-2.87Z"/><path class="cls-28" d="M250.39,390.67h5.1v32.44h-5.1v-32.44Z"/><path class="cls-23" d="M275.14,411.02v4.31c0,4.82-2.27,7.74-6.58,8.11v1.48c2.27,0,3.43.56,3.43,2.18,0,2.5-1.95,2.83-4.68,2.83-2.55,0-4.45-.56-4.45-2.69v-.46h3.43v.37c0,.7.51.93,1.02.93.79,0,1.16-.33,1.16-1.11,0-.88-.56-1.2-1.67-1.2h-.46v-2.36c-4.22-.42-6.4-3.29-6.4-8.06v-16.87c0-5.19,2.6-8.16,7.6-8.16s7.6,2.97,7.6,8.16v3.15h-4.82v-3.48c0-2.32-1.02-3.2-2.64-3.2s-2.64.88-2.64,3.2v17.52c0,2.32,1.02,3.15,2.64,3.15s2.64-.83,2.64-3.15v-4.63h4.82Z"/><path class="cls-3" d="M295.91,423.11h-5.14l-.88-5.89h-6.26l-.88,5.89h-4.68l5.19-32.44h7.46l5.19,32.44ZM290.81,384.09l2.46,1.71c-.88,2.36-2.32,3.15-3.94,3.15-1.95,0-2.78-1.16-4.17-1.16-.83,0-1.44.19-1.99,1.34l-2.46-1.71c.88-2.36,2.32-3.15,3.94-3.15,1.95,0,2.78,1.16,4.17,1.16.83,0,1.44-.19,1.99-1.34ZM284.27,412.82h4.91l-2.46-16.41-2.46,16.41Z"/><path class="cls-12" d="M298.96,398.46c0-5.19,2.73-8.16,7.74-8.16s7.74,2.97,7.74,8.16v16.87c0,5.19-2.73,8.16-7.74,8.16s-7.74-2.97-7.74-8.16v-16.87ZM304.06,415.65c0,2.32,1.02,3.2,2.64,3.2s2.64-.88,2.64-3.2v-17.52c0-2.32-1.02-3.2-2.64-3.2s-2.64.88-2.64,3.2v17.52Z"/></g></svg>