<?xml version="1.0" encoding="UTF-8"?><svg id="Camada_2" xmlns="http://www.w3.org/2000/svg" xmlns:xlink="http://www.w3.org/1999/xlink" viewBox="0 0 194.84 194.84"><defs><style>.cls-1{fill:url(#Gradiente_1-3);}.cls-1,.cls-2,.cls-3,.cls-4,.cls-5,.cls-6,.cls-7{stroke-width:0px;}.cls-2{fill:url(#Gradiente_1-7);}.cls-3{fill:url(#Gradiente_1);}.cls-4{fill:url(#Gradiente_1-5);}.cls-5{fill:url(#Gradiente_1-2);}.cls-6{fill:url(#Gradiente_1-6);}.cls-7{fill:url(#Gradiente_1-4);}</style><linearGradient id="Gradiente_1" x1="-883.78" y1="-45.8" x2="237.9" y2="36.14" gradientUnits="userSpaceOnUse"><stop offset="0" stop-color="#ffda00"/><stop offset="1" stop-color="#f79200"/></linearGradient><linearGradient id="Gradiente_1-2" x1="-895" y1="107.74" x2="226.68" y2="189.68" xlink:href="#Gradiente_1"/><linearGradient id="Gradiente_1-3" x1="-894.18" y1="96.52" x2="227.5" y2="178.46" xlink:href="#Gradiente_1"/><linearGradient id="Gradiente_1-4" x1="-882.96" y1="-57.02" x2="238.72" y2="24.92" xlink:href="#Gradiente_1"/><linearGradient id="Gradiente_1-5" x1="-888.99" y1="25.48" x2="232.69" y2="107.43" xlink:href="#Gradiente_1"/><linearGradient id="Gradiente_1-6" x1="100.31" y1="140.81" x2="94.21" y2="53.63" xlink:href="#Gradiente_1"/><linearGradient id="Gradiente_1-7" x1="101.58" y1="140.66" x2="95.49" y2="53.56" xlink:href="#Gradiente_1"/></defs><g id="Camada_1-2"><rect class="cls-3" x="0" y="0" width="40.48" height="40.48" rx="20.24" ry="20.24"/><rect class="cls-5" x="0" y="154.36" width="40.48" height="40.48" rx="20.24" ry="20.24"/><rect class="cls-1" x="154.36" y="154.36" width="40.48" height="40.48" rx="20.24" ry="20.24"/><rect class="cls-7" x="154.36" y="0" width="40.48" height="40.48" rx="20.24" ry="20.24"/><path class="cls-4" d="M188.41,81.55c-3.97-3.97-9.46-6.43-15.53-6.43h-1.89c-9.19,0-16.64-7.45-16.64-16.64v-1.37c0-9.19-7.45-16.64-16.64-16.64h-3.43c-9.19,0-16.64-7.45-16.64-16.64v-1.89c0-12.12-9.83-21.95-21.95-21.95-6.06,0-11.55,2.46-15.53,6.43-3.97,3.97-6.43,9.46-6.43,15.53v1.89c0,9.19-7.45,16.64-16.64,16.64-4.59,0-8.75,1.87-11.77,4.87-3,3.01-4.87,7.18-4.87,11.77v1.37c0,9.19-7.45,16.64-16.64,16.64h-1.89c-12.12,0-21.95,9.83-21.95,21.95,0,6.06,2.46,11.55,6.43,15.53,3.97,3.97,9.46,6.43,15.53,6.43h1.89c9.19,0,16.64,7.45,16.64,16.64v2.06c0,9.19,7.45,16.64,16.64,16.64,4.59,0,8.75,1.87,11.77,4.87,3,3.01,4.87,7.18,4.87,11.77v1.89c0,12.12,9.83,21.95,21.95,21.95,6.06,0,11.55-2.46,15.53-6.43,3.97-3.97,6.43-9.46,6.43-15.53v-1.89c0-9.19,7.45-16.64,16.64-16.64h3.43c9.19,0,16.64-7.45,16.64-16.64v-2.06c0-9.19,7.45-16.64,16.64-16.64h1.89c12.12,0,21.95-9.83,21.95-21.95,0-6.06-2.46-11.55-6.43-15.53ZM97.42,146.13c-26.9,0-48.71-21.81-48.71-48.71s21.81-48.71,48.71-48.71,48.71,21.81,48.71,48.71-21.81,48.71-48.71,48.71Z"/><path class="cls-6" d="M133.33,96.71c0,20.81-17.61,37.5-38.74,36-18.17-1.29-32.7-16.3-33.44-34.5-.42-10.38,3.54-19.83,10.19-26.66.47-.48,1.26-.47,1.73.02l10.79,11.22c.44.46.46,1.18.03,1.64-3.11,3.37-4.95,7.94-4.78,12.94.33,9.28,7.86,16.95,17.13,17.44,10.47.56,19.13-7.76,19.13-18.11,0-4.98-2-9.5-5.26-12.77-.45-.45-.45-1.17-.03-1.64l10.36-11.61c.45-.5,1.24-.55,1.73-.08,6.89,6.57,11.17,15.83,11.17,26.1Z"/><rect class="cls-2" x="88.71" y="62.82" width="17.03" height="31.14" rx="1.2" ry="1.2"/></g></svg>