<?xml version="1.0" encoding="UTF-8"?><svg id="Camada_2" xmlns="http://www.w3.org/2000/svg" xmlns:xlink="http://www.w3.org/1999/xlink" viewBox="0 0 194.84 194.84"><defs><style>.cls-1{fill:url(#Gradiente_1);stroke-width:0px;}</style><linearGradient id="Gradiente_1" x1="94.98" y1="-17.47" x2="99.86" y2="211.38" gradientUnits="userSpaceOnUse"><stop offset="0" stop-color="#ffda00"/><stop offset="1" stop-color="#f79200"/></linearGradient></defs><g id="Camada_1-2"><path class="cls-1" d="M180.73,75.12h-9.75c-9.18,0-16.63-7.45-16.63-16.64v-1.37s0-.03,0-.04v-2.49c0-7.79-6.32-14.1-14.1-14.1h-2.49s-.03,0-.04,0h-3.43c-9.18,0-16.62-7.44-16.64-16.62v-9.76c0-7.79-6.32-14.1-14.1-14.1h-15.71c-7.78,0-14.1,6.31-14.1,14.1v9.8c-.03,9.16-7.47,16.57-16.63,16.57-.01,0-.03,0-.04,0h-2.5c-7.78,0-14.1,6.31-14.1,14.1v4.04c-.08,9.12-7.49,16.49-16.62,16.5h-9.75c-7.79,0-14.1,6.32-14.1,14.1v15.71c0,7.78,6.31,14.1,14.1,14.1h9.81c9.11.04,16.48,7.4,16.56,16.49v4.73c0,7.79,6.32,14.1,14.1,14.1h2.5s.03,0,.04,0c4.59,0,8.75,1.87,11.77,4.87,2.99,3,4.85,7.14,4.87,11.7v9.8c0,7.79,6.32,14.1,14.1,14.1h15.71c7.78,0,14.1-6.31,14.1-14.1v-9.76c.01-9.18,7.46-16.62,16.64-16.62h3.43s.03,0,.04,0h2.49c7.78,0,14.1-6.31,14.1-14.1v-2.49s0-.03,0-.04v-2.06c0-9.16,7.41-16.59,16.56-16.63h9.81c7.78,0,14.1-6.32,14.1-14.1v-15.71c0-7.78-6.32-14.1-14.1-14.1ZM145.99,100.9c-.26,3.7-.93,7.28-1.97,10.71-.03.1-.05.2-.08.3-.2.65-.42,1.28-.65,1.92-.04.11-.08.23-.12.34-.15.42-.33.84-.49,1.25-.13.32-.24.64-.38.96-.13.31-.28.61-.42.92-.18.41-.36.83-.56,1.24-.12.24-.25.48-.37.72-.23.46-.46.93-.71,1.38-.05.09-.1.17-.15.26-.33.6-.67,1.2-1.03,1.78-.03.04-.06.08-.08.13-8.56,13.99-23.98,23.32-41.57,23.32-26.9,0-48.71-21.81-48.71-48.71s21.81-48.71,48.71-48.71c17.6,0,33.01,9.34,41.57,23.32.03.04.06.08.08.13.36.59.69,1.18,1.03,1.78.05.09.1.17.15.26.25.45.47.92.71,1.38.12.24.25.48.37.72.2.41.37.82.56,1.24.14.31.28.61.42.92.13.32.25.64.38.96.17.42.34.83.49,1.25.04.11.08.23.12.34.23.63.45,1.27.65,1.92.03.1.05.2.08.3,1.04,3.42,1.71,7.01,1.97,10.71.08,1.15.14,2.31.14,3.48s-.06,2.33-.14,3.48Z"/></g></svg>