<?xml version="1.0" encoding="UTF-8"?><svg id="Camada_2" xmlns="http://www.w3.org/2000/svg" xmlns:xlink="http://www.w3.org/1999/xlink" viewBox="0 0 1186.45 276.6"><defs><style>.cls-1{fill:url(#Gradiente_1-3);}.cls-1,.cls-2,.cls-3,.cls-4,.cls-5,.cls-6,.cls-7,.cls-8,.cls-9,.cls-10,.cls-11,.cls-12,.cls-13,.cls-14,.cls-15,.cls-16,.cls-17,.cls-18,.cls-19,.cls-20,.cls-21,.cls-22,.cls-23,.cls-24,.cls-25,.cls-26,.cls-27,.cls-28,.cls-29,.cls-30{stroke-width:0px;}.cls-2{fill:url(#Gradiente_1-27);}.cls-3{fill:url(#Gradiente_1-15);}.cls-4{fill:url(#Gradiente_1-17);}.cls-5{fill:url(#Gradiente_1-24);}.cls-6{fill:url(#Gradiente_1-9);}.cls-7{fill:url(#Gradiente_1-23);}.cls-8{fill:url(#Gradiente_1-8);}.cls-9{fill:url(#Gradiente_1-21);}.cls-10{fill:url(#Gradiente_1-18);}.cls-11{fill:url(#Gradiente_1-7);}.cls-12{fill:url(#Gradiente_1-25);}.cls-13{fill:url(#Gradiente_1-28);}.cls-14{fill:url(#Gradiente_1);}.cls-15{fill:url(#Gradiente_1-20);}.cls-16{fill:url(#Gradiente_1-12);}.cls-17{fill:url(#Gradiente_1-10);}.cls-18{fill:url(#Gradiente_1-5);}.cls-19{fill:url(#Gradiente_1-19);}.cls-20{fill:url(#Gradiente_1-11);}.cls-21{fill:url(#Gradiente_1-30);}.cls-22{fill:url(#Gradiente_1-26);}.cls-23{fill:url(#Gradiente_1-13);}.cls-24{fill:url(#Gradiente_1-14);}.cls-25{fill:url(#Gradiente_1-2);}.cls-26{fill:url(#Gradiente_1-29);}.cls-27{fill:url(#Gradiente_1-22);}.cls-28{fill:url(#Gradiente_1-6);}.cls-29{fill:url(#Gradiente_1-16);}.cls-30{fill:url(#Gradiente_1-4);}</style><linearGradient id="Gradiente_1" x1="-7.71" y1="100.99" x2="1174.61" y2="298.04" gradientUnits="userSpaceOnUse"><stop offset="0" stop-color="#ffda00"/><stop offset="1" stop-color="#f79200"/></linearGradient><linearGradient id="Gradiente_1-2" x1="-5.62" y1="88.46" x2="1176.69" y2="285.51" xlink:href="#Gradiente_1"/><linearGradient id="Gradiente_1-3" x1="-2.7" y1="70.9" x2="1179.62" y2="267.95" xlink:href="#Gradiente_1"/><linearGradient id="Gradiente_1-4" x1="-.02" y1="54.86" x2="1182.29" y2="251.91" xlink:href="#Gradiente_1"/><linearGradient id="Gradiente_1-5" x1="2.83" y1="37.76" x2="1185.14" y2="234.81" xlink:href="#Gradiente_1"/><linearGradient id="Gradiente_1-6" x1="4.58" y1="27.25" x2="1186.9" y2="224.3" xlink:href="#Gradiente_1"/><linearGradient id="Gradiente_1-7" x1="7.38" y1="10.42" x2="1189.78" y2="207.49" xlink:href="#Gradiente_1"/><linearGradient id="Gradiente_1-8" x1="8.94" y1="1.12" x2="1191.25" y2="198.17" xlink:href="#Gradiente_1"/><linearGradient id="Gradiente_1-9" x1="10.77" y1="-9.9" x2="1193.09" y2="187.15" xlink:href="#Gradiente_1"/><linearGradient id="Gradiente_1-10" x1="13.44" y1="-25.94" x2="1195.76" y2="171.11" xlink:href="#Gradiente_1"/><linearGradient id="Gradiente_1-11" x1="-13.8" y1="137.53" x2="1168.52" y2="334.59" xlink:href="#Gradiente_1"/><linearGradient id="Gradiente_1-12" x1="17.73" y1="-51.65" x2="1200.05" y2="145.4" xlink:href="#Gradiente_1"/><linearGradient id="Gradiente_1-13" x1="12.42" y1="-19.81" x2="1194.74" y2="177.24" xlink:href="#Gradiente_1"/><linearGradient id="Gradiente_1-14" x1="13.61" y1="-26.93" x2="1195.93" y2="170.12" xlink:href="#Gradiente_1"/><linearGradient id="Gradiente_1-15" x1="14.38" y1="-31.58" x2="1196.7" y2="165.48" xlink:href="#Gradiente_1"/><linearGradient id="Gradiente_1-16" x1="27.81" y1="-112.15" x2="1210.13" y2="84.9" xlink:href="#Gradiente_1"/><linearGradient id="Gradiente_1-17" x1="29.93" y1="-124.83" x2="1212.24" y2="72.22" xlink:href="#Gradiente_1"/><linearGradient id="Gradiente_1-18" x1="29.72" y1="-123.62" x2="1212.04" y2="73.43" xlink:href="#Gradiente_1"/><linearGradient id="Gradiente_1-19" x1="30.49" y1="-128.18" x2="1212.8" y2="68.87" xlink:href="#Gradiente_1"/><linearGradient id="Gradiente_1-20" x1="31.36" y1="-133.41" x2="1213.67" y2="63.64" xlink:href="#Gradiente_1"/><linearGradient id="Gradiente_1-21" x1="31.12" y1="-132" x2="1213.44" y2="65.06" xlink:href="#Gradiente_1"/><linearGradient id="Gradiente_1-22" x1="33.82" y1="-148.21" x2="1216.14" y2="48.84" xlink:href="#Gradiente_1"/><linearGradient id="Gradiente_1-23" x1="33.95" y1="-148.95" x2="1216.26" y2="48.11" xlink:href="#Gradiente_1"/><linearGradient id="Gradiente_1-24" x1="27.21" y1="-20.01" x2="34.03" y2="299.82" xlink:href="#Gradiente_1"/><linearGradient id="Gradiente_1-25" x1="22.61" y1="-19.91" x2="29.43" y2="299.92" xlink:href="#Gradiente_1"/><linearGradient id="Gradiente_1-26" x1="238.23" y1="-24.51" x2="245.05" y2="295.32" xlink:href="#Gradiente_1"/><linearGradient id="Gradiente_1-27" x1="242.83" y1="-24.61" x2="249.65" y2="295.22" xlink:href="#Gradiente_1"/><linearGradient id="Gradiente_1-28" x1="132.73" y1="-22.26" x2="139.56" y2="297.57" xlink:href="#Gradiente_1"/><linearGradient id="Gradiente_1-29" x1="131.89" y1="-22.24" x2="138.72" y2="297.59" xlink:href="#Gradiente_1"/><linearGradient id="Gradiente_1-30" x1="132.39" y1="-22.25" x2="139.21" y2="297.58" xlink:href="#Gradiente_1"/></defs><g id="Camada_1-2"><path class="cls-14" d="M370.91,233.02h-36.84V89.03h36.84v143.99Z"/><path class="cls-25" d="M479.17,233.02h-53.73l-6.88-85.95c-.16-.31-.39-.47-.71-.47-.39,0-.62.24-.62.7v85.72h-36.84V89.03h53.73l6.96,85.95c.08.31.31.47.7.47.08,0,.24,0,.39-.08.15-.08.23-28.86.23-86.34h36.76v143.99Z"/><path class="cls-1" d="M587.43,233.02h-53.73l-6.88-85.95c-.15-.31-.39-.47-.7-.47-.39,0-.62.24-.62.7v85.72h-36.84V89.03h53.73l6.96,85.95c.08.31.31.47.71.47.08,0,.24,0,.39-.08s.23-28.86.23-86.34h36.76v143.99Z"/><path class="cls-30" d="M621,233.02c-6.65,0-12.36-2.35-17.05-7.04-4.69-4.69-7.04-10.4-7.04-17.05v-95.81c0-6.65,2.35-12.36,7.04-17.05,4.69-4.69,10.4-7.04,17.05-7.04h31.91c6.65,0,12.36,2.35,17.05,7.04,4.69,4.69,7.04,10.4,7.04,17.05v95.81c0,6.65-2.35,12.36-7.04,17.05-4.69,4.69-10.4,7.04-17.05,7.04h-31.91ZM640.24,209.16v-96.28c0-1.88-1.48-3.28-3.28-3.28s-3.28,1.41-3.28,3.28v96.28c0,1.88,1.48,3.28,3.28,3.28s3.28-1.41,3.28-3.28Z"/><path class="cls-18" d="M757.26,233.02h-51.62l-21.9-143.99h36.76l5.01,41.14,4.46,61.63c.08.94.55,1.41,1.49,1.41.86,0,1.41-.47,1.49-1.41l4.46-61.63,5.01-41.14h36.76l-21.9,143.99Z"/><path class="cls-28" d="M865.91,233.02h-36.76l-2.5-20.57h-16.89l-2.5,20.57h-36.84l21.9-143.99h51.7l21.9,143.99ZM824.15,191.88l-4.46-61.63c-.08-.94-.63-1.41-1.49-1.41-.94,0-1.49.47-1.56,1.41l-4.38,61.63h11.89Z"/><path class="cls-11" d="M918.18,233.02h-36.76v-123.42h-24.25l1.88-20.57h81.5l1.88,20.57h-24.25v123.42Z"/><path class="cls-8" d="M986.79,233.02h-36.84V89.03h36.84v143.99Z"/><path class="cls-6" d="M1052.26,234.52h-31.91c-7.05,0-13.15-2.52-18.11-7.48-4.96-4.97-7.48-11.06-7.48-18.11v-95.81c0-7.05,2.52-13.15,7.48-18.11,4.96-4.96,11.06-7.48,18.11-7.48h31.91c7.05,0,13.15,2.52,18.11,7.48,4.96,4.97,7.48,11.06,7.48,18.11v95.81c0,7.05-2.52,13.15-7.48,18.11-4.97,4.96-11.06,7.48-18.11,7.48ZM1020.35,90.53c-6.23,0-11.61,2.22-15.99,6.6-4.38,4.38-6.6,9.76-6.6,15.99v95.81c0,6.23,2.22,11.61,6.6,15.99,4.38,4.38,9.76,6.6,15.99,6.6h31.91c6.23,0,11.61-2.22,15.99-6.6,4.38-4.38,6.6-9.76,6.6-15.99v-95.81c0-6.23-2.22-11.61-6.6-15.99-4.38-4.38-9.76-6.6-15.99-6.6h-31.91ZM1036.31,213.94c-2.68,0-4.78-2.1-4.78-4.78v-96.28c0-2.68,2.1-4.78,4.78-4.78s4.78,2.1,4.78,4.78v96.28c0,2.68-2.1,4.78-4.78,4.78ZM1036.31,111.1c-1.02,0-1.78.77-1.78,1.78v96.28c0,1.02.77,1.78,1.78,1.78s1.78-.77,1.78-1.78v-96.28c0-1.02-.77-1.78-1.78-1.78Z"/><path class="cls-17" d="M1186.11,234.52h-56.62l-5.33-66.52v66.52h-39.84V87.53h56.62l5.35,66.02c.04-13.05.06-33.38.06-64.52v-1.5h39.76v146.99ZM1132.27,231.52h50.85V90.53h-33.76c0,27.84-.02,49.1-.06,63.2-.02,7.2-.04,12.6-.07,16.21q-.05,6.32-.92,6.77c-.49.24-.93.24-1.07.24-1.09,0-1.92-.62-2.16-1.62l-.04-.23-6.85-84.57h-50.85v140.99h33.84v-84.22c0-1.28.89-2.2,2.12-2.2.89,0,1.64.47,2.05,1.3l.13.26.02.29,6.77,84.57Z"/><rect class="cls-20" x="334.07" y="256.48" width="852.39" height="20.12"/><rect class="cls-16" x="465.27" y="49.41" width="438.36" height="20.12"/><path class="cls-23" d="M346.67,68.71h-10.01V5.02h10.01v27.3h11.38V5.02h10.19v63.69h-10.19v-27.3h-11.38v27.3Z"/><path class="cls-24" d="M387.35,5.02v49.13c0,4.55,2,6.19,5.19,6.19s5.18-1.64,5.18-6.19V5.02h9.46v48.5c0,10.19-5.1,16.01-14.92,16.01s-14.92-5.82-14.92-16.01V5.02h10.01Z"/><path class="cls-3" d="M446.23,19.66v2.28c0,6.55-2,10.74-6.46,12.83,5.37,2.09,7.46,6.92,7.46,13.65v5.19c0,9.83-5.19,15.1-15.2,15.1h-15.74V5.02h15.1c10.37,0,14.83,4.82,14.83,14.65ZM426.3,14.11v16.83h3.91c3.73,0,6-1.64,6-6.73v-3.55c0-4.55-1.55-6.55-5.09-6.55h-4.82ZM426.3,40.05v19.56h5.73c3.37,0,5.19-1.55,5.19-6.28v-5.55c0-5.91-1.91-7.73-6.46-7.73h-4.46Z"/><path class="cls-29" d="M936.33,50.87v5.37c0,4.13,1.82,5.62,4.71,5.62s4.71-1.49,4.71-5.62v-12.71c0-4.13-1.82-5.7-4.71-5.7s-4.71,1.57-4.71,5.7v1.73h-8.59l1.65-33.53h23.95v8.26h-15.77l-.74,13.79c1.65-2.73,4.3-4.21,7.93-4.21,6.69,0,10.07,4.71,10.07,13.21v12.88c0,9.25-4.62,14.53-13.54,14.53s-13.54-5.28-13.54-14.53v-4.79h8.59Z"/><path class="cls-4" d="M962.1,33.77c0-7.84,4.87-10.07,11.73-10.32v-3.8c0-2.15-.74-3.06-2.31-3.06-1.82,0-2.81.91-2.81,3.55v1.9h-5.45v-1.57c0-5.78,2.81-9.17,8.5-9.17s7.84,3.39,7.84,9.17v21.55h-4.87l-.33-3.96c-.91,2.89-2.89,4.38-5.86,4.38-4.3,0-6.44-2.89-6.44-8.34v-.33ZM979.6,45.83v5.7h-17.5v-5.7h17.5ZM967.88,33.61c0,2.64,1.16,3.55,2.97,3.55s2.81-.74,2.97-2.97v-6.44c-5.12.25-5.95,2.89-5.95,5.12v.74Z"/><path class="cls-10" d="M1011.9,36.08h12.47v8.26h-12.47v16.93h15.69v8.26h-24.77V11.73h24.77v8.26h-15.69v16.1Z"/><path class="cls-19" d="M1035.27,11.73h14.37c9.08,0,13.54,5.04,13.54,14.28v29.23c0,9.25-4.46,14.28-13.54,14.28h-14.37V11.73ZM1044.35,19.98v41.29h5.12c2.89,0,4.63-1.49,4.63-5.62v-30.06c0-4.13-1.73-5.62-4.63-5.62h-5.12Z"/><path class="cls-15" d="M1071.03,11.73h9.08v57.8h-9.08V11.73Z"/><path class="cls-9" d="M1115.13,47.97v7.68c0,8.59-4.05,13.79-11.73,14.45v2.64c4.05,0,6.11.99,6.11,3.88,0,4.46-3.47,5.04-8.34,5.04-4.54,0-7.93-.99-7.93-4.79v-.83h6.11v.66c0,1.24.91,1.65,1.82,1.65,1.4,0,2.06-.58,2.06-1.98,0-1.57-.99-2.15-2.97-2.15h-.83v-4.21c-7.51-.74-11.39-5.86-11.39-14.37v-30.06c0-9.25,4.63-14.53,13.54-14.53s13.54,5.28,13.54,14.53v5.62h-8.59v-6.19c0-4.13-1.82-5.7-4.71-5.7s-4.71,1.57-4.71,5.7v31.21c0,4.13,1.82,5.62,4.71,5.62s4.71-1.49,4.71-5.62v-8.26h8.59Z"/><path class="cls-27" d="M1152.13,69.53h-9.17l-1.57-10.49h-11.15l-1.57,10.49h-8.34l9.25-57.8h13.29l9.25,57.8ZM1143.04,0l4.38,3.05c-1.57,4.21-4.13,5.62-7.02,5.62-3.47,0-4.96-2.06-7.43-2.06-1.49,0-2.56.33-3.55,2.4l-4.38-3.05c1.57-4.21,4.13-5.62,7.02-5.62,3.47,0,4.95,2.06,7.43,2.06,1.49,0,2.56-.33,3.55-2.4ZM1131.4,51.19h8.75l-4.38-29.23-4.38,29.23Z"/><path class="cls-7" d="M1157.58,25.6c0-9.25,4.87-14.53,13.79-14.53s13.79,5.28,13.79,14.53v30.06c0,9.25-4.87,14.53-13.79,14.53s-13.79-5.28-13.79-14.53v-30.06ZM1166.67,56.23c0,4.13,1.82,5.7,4.71,5.7s4.71-1.57,4.71-5.7v-31.21c0-4.13-1.82-5.7-4.71-5.7s-4.71,1.57-4.71,5.7v31.21Z"/><rect class="cls-5" x="0" y="2.16" width="56.57" height="56.57" rx="19.71" ry="19.71"/><rect class="cls-12" x="0" y="217.88" width="56.57" height="56.57" rx="19.71" ry="19.71"/><rect class="cls-22" x="215.72" y="217.88" width="56.57" height="56.57" rx="19.71" ry="19.71"/><rect class="cls-2" x="215.72" y="2.16" width="56.57" height="56.57" rx="19.71" ry="19.71"/><path class="cls-13" d="M252.58,107.14h-17.15c-10.89,0-19.71-8.82-19.71-19.71v-9c0-10.89-8.83-19.71-19.71-19.71h-11.87c-10.89,0-19.71-8.83-19.71-19.71v-17.15c0-10.89-8.83-19.71-19.71-19.71h-21.95c-10.88,0-19.71,8.82-19.71,19.71v17.15c0,10.88-8.82,19.71-19.71,19.71h-7.09c-10.88,0-19.71,8.82-19.71,19.71v9c0,10.89-8.82,19.71-19.7,19.71h-17.15C8.82,107.14,0,115.97,0,126.85v21.95c0,10.88,8.82,19.71,19.71,19.71h17.15c10.88,0,19.7,8.82,19.7,19.7v9.96c0,10.89,8.83,19.71,19.71,19.71h7.09c10.89,0,19.71,8.83,19.71,19.71v17.15c0,10.89,8.83,19.71,19.71,19.71h21.95c10.88,0,19.71-8.82,19.71-19.71v-17.15c0-10.88,8.82-19.71,19.71-19.71h11.87c10.88,0,19.71-8.82,19.71-19.71v-9.96c0-10.88,8.82-19.7,19.71-19.7h17.15c10.88,0,19.71-8.83,19.71-19.71v-21.95c0-10.88-8.83-19.71-19.71-19.71ZM136.15,206.37c-37.6,0-68.07-30.47-68.07-68.07s30.47-68.07,68.07-68.07,68.07,30.47,68.07,68.07-30.49,68.07-68.07,68.07Z"/><path class="cls-26" d="M181.2,136.21c0,26.47-22.4,47.7-49.28,45.79-23.12-1.64-41.6-20.73-42.53-43.89-.53-13.2,4.5-25.22,12.96-33.91.6-.62,1.6-.59,2.2.03l13.73,14.27c.56.58.58,1.49.03,2.09-3.95,4.29-6.3,10.1-6.08,16.46.42,11.8,10,21.56,21.79,22.19,13.32.71,24.34-9.88,24.34-23.03,0-6.33-2.55-12.08-6.69-16.24-.57-.57-.58-1.49-.04-2.08l13.18-14.77c.57-.64,1.57-.7,2.2-.11,8.76,8.36,14.21,20.14,14.21,33.2Z"/><rect class="cls-21" x="124.44" y="93.09" width="21.66" height="39.61" rx="1.2" ry="1.2"/></g></svg>